<svg width="160" height="160" viewBox="0 0 160 160" fill="none" xmlns="http://www.w3.org/2000/svg">
  <circle cx="80" cy="58" r="48" fill="#ffffff" stroke="#075db8" stroke-width="5"/>
  <path d="M80 18c5.5 18.5 15.5 29 31.5 34.5-16 5.5-26 16-31.5 34.5C74.5 68.5 64.5 58 48.5 52.5 64.5 47 74.5 36.5 80 18Z" fill="#f0142f"/>
  <path d="M37 52c18 11 68 11 86 0-6.5 11.5-14.5 20-31 23H68c-16.5-3-24.5-11.5-31-23Z" fill="#f0142f"/>
  <path d="M80 91c-3-2.6-24-15.7-24-33.2C56 47.4 63.1 40 73 40c5 0 9.4 2.3 12 6.1C87.6 42.3 92 40 97 40c9.9 0 17 7.4 17 17.8C114 75.3 93 88.4 90 91l-10 8.6L80 91Z" fill="#075db8"/>
  <path d="M12 111c21.8 6 44.4 9 68 9s46.2-3 68-9l-12.5 23.5c-18.2 5.8-36.7 8.7-55.5 8.7s-37.3-2.9-55.5-8.7L12 111Z" fill="#075db8"/>
  <path d="M28 119c32.5 10.5 71.5 10.5 104 0" stroke="#075db8" stroke-width="8" stroke-linecap="round"/>
  <text x="80" y="130" text-anchor="middle" fill="#f0142f" font-family="Georgia, serif" font-size="11" font-weight="700" transform="rotate(-1 80 130)">Servimedical Salud S.A.S</text>
  <text x="80" y="149" text-anchor="middle" fill="#f0142f" font-family="Arial, sans-serif" font-size="12" font-weight="700">Monteria - Cordoba</text>
</svg>
